{
  "accessors": [
    {
      "bufferView": 2,
      "componentType": 5126,
      "count": 65532,
      "max": [
        11.439718246459961,
        13.261621475219727,
        5.436992645263672
      ],
      "min": [
        -15.348617553710938,
        -11.527673721313477,
        -4.901074409484863
      ],
      "type": "VEC3"
    },
    {
      "bufferView": 2,
      "byteOffset": 786384,
      "componentType": 5126,
      "count": 65532,
      "max": [
        0.9998880624771118,
        0.9999967813491821,
        1.0
      ],
      "min": [
        -0.9982283711433411,
        -0.9999654293060303,
        -0.7915504574775696
      ],
      "type": "VEC3"
    },
    {
      "bufferView": 1,
      "componentType": 5126,
      "count": 65532,
      "max": [
        0.9904836416244507,
        0.9989997148513794
      ],
      "min": [
        0.001013427972793579,
        0.014439225196838379
      ],
      "type": "VEC2"
    },
    {
      "bufferView": 0,
      "componentType": 5125,
      "count": 65532,
      "type": "SCALAR"
    },
    {
      "bufferView": 2,
      "byteOffset": 1572768,
      "componentType": 5126,
      "count": 65532,
      "max": [
        11.439718246459961,
        13.291976928710938,
        5.442604064941406
      ],
      "min": [
        -15.630769729614258,
        -11.527673721313477,
        -4.901074409484863
      ],
      "type": "VEC3"
    },
    {
      "bufferView": 2,
      "byteOffset": 2359152,
      "componentType": 5126,
      "count": 65532,
      "max": [
        0.9991686940193176,
        0.9999901652336121,
        0.9999961853027344
      ],
      "min": [
        -0.9998491406440735,
        -0.9998969435691833,
        -0.921410858631134
      ],
      "type": "VEC3"
    },
    {
      "bufferView": 1,
      "byteOffset": 524256,
      "componentType": 5126,
      "count": 65532,
      "max": [
        0.9921565055847168,
        0.99892258644104
      ],
      "min": [
        0.00011234760313527659,
        0.011110186576843262
      ],
      "type": "VEC2"
    },
    {
      "bufferView": 0,
      "byteOffset": 262128,
      "componentType": 5125,
      "count": 65532,
      "type": "SCALAR"
    },
    {
      "bufferView": 2,
      "byteOffset": 3145536,
      "componentType": 5126,
      "count": 65532,
      "max": [
        11.439718246459961,
        13.305623054504395,
        5.442604064941406
      ],
      "min": [
        -15.578506469726563,
        -11.621903419494629,
        -4.901899337768555
      ],
      "type": "VEC3"
    },
    {
      "bufferView": 2,
      "byteOffset": 3931920,
      "componentType": 5126,
      "count": 65532,
      "max": [
        0.9983891844749451,
        0.9999834895133972,
        0.9999995827674866
      ],
      "min": [
        -0.9999655485153198,
        -0.9999884963035583,
        -0.994284451007843
      ],
      "type": "VEC3"
    },
    {
      "bufferView": 1,
      "byteOffset": 1048512,
      "componentType": 5126,
      "count": 65532,
      "max": [
        0.9915299415588379,
        0.9982932806015015
      ],
      "min": [
        0.00011234760313527659,
        0.011110186576843262
      ],
      "type": "VEC2"
    },
    {
      "bufferView": 0,
      "byteOffset": 524256,
      "componentType": 5125,
      "count": 65532,
      "type": "SCALAR"
    },
    {
      "bufferView": 2,
      "byteOffset": 4718304,
      "componentType": 5126,
      "count": 51855,
      "max": [
        11.434181213378906,
        13.305623054504395,
        5.412060260772705
      ],
      "min": [
        -15.729830741882324,
        -11.462699890136719,
        -4.847277641296387
      ],
      "type": "VEC3"
    },
    {
      "bufferView": 2,
      "byteOffset": 5340564,
      "componentType": 5126,
      "count": 51855,
      "max": [
        0.9924512505531311,
        0.9999063014984131,
        1.0
      ],
      "min": [
        -0.9999731183052063,
        -0.9951619505882263,
        -0.9699837565422058
      ],
      "type": "VEC3"
    },
    {
      "bufferView": 1,
      "byteOffset": 1572768,
      "componentType": 5126,
      "count": 51855,
      "max": [
        0.9891982078552246,
        0.99892258644104
      ],
      "min": [
        0.000588058028370142,
        0.012006402015686035
      ],
      "type": "VEC2"
    },
    {
      "bufferView": 0,
      "byteOffset": 786384,
      "componentType": 5125,
      "count": 51855,
      "type": "SCALAR"
    },
    {
      "bufferView": 2,
      "byteOffset": 5962824,
      "componentType": 5126,
      "count": 65532,
      "max": [
        11.340280532836914,
        13.32101058959961,
        5.436000347137451
      ],
      "min": [
        -15.560657501220703,
        -13.746455192565918,
        -4.879693508148193
      ],
      "type": "VEC3"
    },
    {
      "bufferView": 2,
      "byteOffset": 6749208,
      "componentType": 5126,
      "count": 65532,
      "max": [
        0.9999539852142334,
        0.9999603629112244,
        0.9999942779541016
      ],
      "min": [
        -0.999750018119812,
        -0.9999790191650391,
        -0.976361095905304
      ],
      "type": "VEC3"
    },
    {
      "bufferView": 1,
      "byteOffset": 1987608,
      "componentType": 5126,
      "count": 65532,
      "max": [
        0.9944639205932617,
        0.9990063309669495
      ],
      "min": [
        0.0010657012462615967,
        0.0043866634368896484
      ],
      "type": "VEC2"
    },
    {
      "bufferView": 0,
      "byteOffset": 993804,
      "componentType": 5125,
      "count": 65532,
      "type": "SCALAR"
    },
    {
      "bufferView": 2,
      "byteOffset": 7535592,
      "componentType": 5126,
      "count": 65532,
      "max": [
        11.361848831176758,
        13.32101058959961,
        5.436000347137451
      ],
      "min": [
        -16.073007583618164,
        -13.75589656829834,
        -4.935028076171875
      ],
      "type": "VEC3"
    },
    {
      "bufferView": 2,
      "byteOffset": 8321976,
      "componentType": 5126,
      "count": 65532,
      "max": [
        0.9997473359107971,
        0.9999872446060181,
        0.9999995827674866
      ],
      "min": [
        -0.9998893141746521,
        -1.0,
        -0.9964457750320435
      ],
      "type": "VEC3"
    },
    {
      "bufferView": 1,
      "byteOffset": 2511864,
      "componentType": 5126,
      "count": 65532,
      "max": [
        0.9950153827667236,
        0.9990236163139343
      ],
      "min": [
        0.0005575856775976717,
        0.0064084529876708984
      ],
      "type": "VEC2"
    },
    {
      "bufferView": 0,
      "byteOffset": 1255932,
      "componentType": 5125,
      "count": 65532,
      "type": "SCALAR"
    },
    {
      "bufferView": 2,
      "byteOffset": 9108360,
      "componentType": 5126,
      "count": 53487,
      "max": [
        11.361848831176758,
        13.32101058959961,
        5.4105424880981445
      ],
      "min": [
        -16.068979263305664,
        -13.732560157775879,
        -4.935028076171875
      ],
      "type": "VEC3"
    },
    {
      "bufferView": 2,
      "byteOffset": 9750204,
      "componentType": 5126,
      "count": 53487,
      "max": [
        0.9999759793281555,
        0.9998710751533508,
        0.9999971985816956
      ],
      "min": [
        -0.9999315142631531,
        -0.9999691247940063,
        -0.9922524094581604
      ],
      "type": "VEC3"
    },
    {
      "bufferView": 1,
      "byteOffset": 3036120,
      "componentType": 5126,
      "count": 53487,
      "max": [
        0.9978829622268677,
        0.9990236163139343
      ],
      "min": [
        6.103519990574569e-05,
        0.0043866634368896484
      ],
      "type": "VEC2"
    },
    {
      "bufferView": 0,
      "byteOffset": 1518060,
      "componentType": 5125,
      "count": 53487,
      "type": "SCALAR"
    },
    {
      "bufferView": 2,
      "byteOffset": 10392048,
      "componentType": 5126,
      "count": 3243,
      "max": [
        11.42935562133789,
        13.320952415466309,
        3.8044772148132324
      ],
      "min": [
        -16.113271713256836,
        -13.75589656829834,
        -5.090621471405029
      ],
      "type": "VEC3"
    },
    {
      "bufferView": 2,
      "byteOffset": 10430964,
      "componentType": 5126,
      "count": 3243,
      "max": [
        0.9950566291809082,
        0.999878466129303,
        0.9181312322616577
      ],
      "min": [
        -0.9979327917098999,
        -0.9636183977127075,
        -0.9996781945228577
      ],
      "type": "VEC3"
    },
    {
      "bufferView": 1,
      "byteOffset": 3464016,
      "componentType": 5126,
      "count": 3243,
      "max": [
        0.0,
        0.0
      ],
      "min": [
        0.0,
        0.0
      ],
      "type": "VEC2"
    },
    {
      "bufferView": 0,
      "byteOffset": 1732008,
      "componentType": 5125,
      "count": 3243,
      "type": "SCALAR"
    }
  ],
  "asset": {
    "extras": {
      "author": "Matt Rafferty (https://sketchfab.com/Matt-AeroLab)",
      "license": "CC-BY-4.0 (http://creativecommons.org/licenses/by/4.0/)",
      "source": "https://sketchfab.com/3d-models/nike-jordan-academy-3d-scan-9d74f000ef954484a065b8bb89e8b9e3",
      "title": "Nike Jordan Academy 3D Scan"
    },
    "generator": "Sketchfab-12.67.0",
    "version": "2.0"
  },
  "bufferViews": [
    {
      "buffer": 0,
      "byteLength": 1744980,
      "name": "floatBufferViews",
      "target": 34963
    },
    {
      "buffer": 0,
      "byteLength": 3489960,
      "byteOffset": 1744980,
      "byteStride": 8,
      "name": "floatBufferViews",
      "target": 34962
    },
    {
      "buffer": 0,
      "byteLength": 10469880,
      "byteOffset": 5234940,
      "byteStride": 12,
      "name": "floatBufferViews",
      "target": 34962
    }
  ],
  "buffers": [
    {
      "byteLength": 15704820,
      "uri": "scene.bin"
    }
  ],
  "extensionsUsed": [
    "KHR_materials_unlit"
  ],
  "images": [
    {
      "uri": "textures/Texture_1_baseColor.jpeg"
    },
    {
      "uri": "textures/Texture_3_baseColor.jpeg"
    }
  ],
  "materials": [
    {
      "doubleSided": true,
      "extensions": {
        "KHR_materials_unlit": {}
      },
      "name": "Texture_1",
      "pbrMetallicRoughness": {
        "baseColorTexture": {
          "index": 0
        },
        "metallicFactor": 0.0
      }
    },
    {
      "doubleSided": true,
      "extensions": {
        "KHR_materials_unlit": {}
      },
      "name": "Texture_3",
      "pbrMetallicRoughness": {
        "baseColorTexture": {
          "index": 1
        },
        "metallicFactor": 0.0
      }
    },
    {
      "doubleSided": true,
      "extensions": {
        "KHR_materials_unlit": {}
      },
      "name": "Untextured1",
      "pbrMetallicRoughness": {
        "baseColorFactor": [
          0.501961,
          0.501961,
          0.501961,
          1.0
        ],
        "metallicFactor": 0.0
      }
    }
  ],
  "meshes": [
    {
      "name": "Mesh_Texture_1_0",
      "primitives": [
        {
          "attributes": {
            "NORMAL": 1,
            "POSITION": 0,
            "TEXCOORD_0": 2
          },
          "indices": 3,
          "material": 0,
          "mode": 4
        }
      ]
    },
    {
      "name": "Mesh_Texture_1_0",
      "primitives": [
        {
          "attributes": {
            "NORMAL": 5,
            "POSITION": 4,
            "TEXCOORD_0": 6
          },
          "indices": 7,
          "material": 0,
          "mode": 4
        }
      ]
    },
    {
      "name": "Mesh_Texture_1_0",
      "primitives": [
        {
          "attributes": {
            "NORMAL": 9,
            "POSITION": 8,
            "TEXCOORD_0": 10
          },
          "indices": 11,
          "material": 0,
          "mode": 4
        }
      ]
    },
    {
      "name": "Mesh_Texture_1_0",
      "primitives": [
        {
          "attributes": {
            "NORMAL": 13,
            "POSITION": 12,
            "TEXCOORD_0": 14
          },
          "indices": 15,
          "material": 0,
          "mode": 4
        }
      ]
    },
    {
      "name": "Mesh_Texture_3_0",
      "primitives": [
        {
          "attributes": {
            "NORMAL": 17,
            "POSITION": 16,
            "TEXCOORD_0": 18
          },
          "indices": 19,
          "material": 1,
          "mode": 4
        }
      ]
    },
    {
      "name": "Mesh_Texture_3_0",
      "primitives": [
        {
          "attributes": {
            "NORMAL": 21,
            "POSITION": 20,
            "TEXCOORD_0": 22
          },
          "indices": 23,
          "material": 1,
          "mode": 4
        }
      ]
    },
    {
      "name": "Mesh_Texture_3_0",
      "primitives": [
        {
          "attributes": {
            "NORMAL": 25,
            "POSITION": 24,
            "TEXCOORD_0": 26
          },
          "indices": 27,
          "material": 1,
          "mode": 4
        }
      ]
    },
    {
      "name": "Mesh_Untextured1_0",
      "primitives": [
        {
          "attributes": {
            "NORMAL": 29,
            "POSITION": 28,
            "TEXCOORD_0": 30
          },
          "indices": 31,
          "material": 2,
          "mode": 4
        }
      ]
    }
  ],
  "nodes": [
    {
      "children": [
        1
      ],
      "matrix": [
        1.0,
        0.0,
        0.0,
        0.0,
        0.0,
        2.220446049250313e-16,
        -1.0,
        0.0,
        0.0,
        1.0,
        2.220446049250313e-16,
        0.0,
        0.0,
        0.0,
        0.0,
        1.0
      ],
      "name": "Sketchfab_model"
    },
    {
      "children": [
        2
      ],
      "matrix": [
        1.0,
        0.0,
        0.0,
        0.0,
        0.0,
        0.0,
        1.0,
        0.0,
        0.0,
        -1.0,
        0.0,
        0.0,
        0.0,
        0.0,
        0.0,
        1.0
      ],
      "name": "12e9f0f5a2ff40f6bfac47eb95f5befd.fbx"
    },
    {
      "children": [
        3
      ],
      "name": "RootNode"
    },
    {
      "children": [
        4,
        5,
        6,
        7,
        8,
        9,
        10,
        11
      ],
      "matrix": [
        1.0,
        0.0,
        0.0,
        0.0,
        0.0,
        -2.220446049250313e-16,
        -1.0,
        0.0,
        0.0,
        1.0,
        -2.220446049250313e-16,
        0.0,
        0.0,
        0.0,
        0.0,
        1.0
      ],
      "name": "Mesh"
    },
    {
      "mesh": 0,
      "name": "Mesh_Texture_1_0"
    },
    {
      "mesh": 1,
      "name": "Mesh_Texture_1_0"
    },
    {
      "mesh": 2,
      "name": "Mesh_Texture_1_0"
    },
    {
      "mesh": 3,
      "name": "Mesh_Texture_1_0"
    },
    {
      "mesh": 4,
      "name": "Mesh_Texture_3_0"
    },
    {
      "mesh": 5,
      "name": "Mesh_Texture_3_0"
    },
    {
      "mesh": 6,
      "name": "Mesh_Texture_3_0"
    },
    {
      "mesh": 7,
      "name": "Mesh_Untextured1_0"
    }
  ],
  "samplers": [
    {
      "magFilter": 9729,
      "minFilter": 9987,
      "wrapS": 10497,
      "wrapT": 10497
    }
  ],
  "scene": 0,
  "scenes": [
    {
      "name": "Sketchfab_Scene",
      "nodes": [
        0
      ]
    }
  ],
  "textures": [
    {
      "sampler": 0,
      "source": 0
    },
    {
      "sampler": 0,
      "source": 1
    }
  ]
}
